<?xml version="1.0" encoding="UTF-8" standalone="no"?>
<svg
   xmlns:dc="http://purl.org/dc/elements/1.1/"
   xmlns:cc="http://creativecommons.org/ns#"
   xmlns:rdf="http://www.w3.org/1999/02/22-rdf-syntax-ns#"
   xmlns:svg="http://www.w3.org/2000/svg"
   xmlns="http://www.w3.org/2000/svg"
   viewBox="0 0 466.66666 466.66666"
   height="466.66666"
   width="466.66666"
   xml:space="preserve"
   id="svg2"
   version="1.1"><metadata
     id="metadata8"><rdf:RDF><cc:Work
         rdf:about=""><dc:format>image/svg+xml</dc:format><dc:type
           rdf:resource="http://purl.org/dc/dcmitype/StillImage" /></cc:Work></rdf:RDF></metadata><defs
     id="defs6" /><g
     transform="matrix(1.3333333,0,0,-1.3333333,0,466.66667)"
     id="g10"><g
       transform="scale(0.1)"
       id="g12"><path
         id="path14"
         style="fill:#100f0d;fill-opacity:1;fill-rule:nonzero;stroke:none"
         d="m 2403.35,667.336 -152.22,1171.184 602.03,546.21 -108.4,108.41 C 3116.13,2892.49 3391.48,3262.73 3500,3500 3262.73,3391.46 2892.5,3116.11 2493.14,2744.73 l -108.41,108.41 -546.19,-602.03 -1171.2,152.2 261.707,479.8 L 0,1954.05 l 157.035,43.61 873.785,-636.81 -120.465,-132.76 -706.472,-87.84 -50.36,-134.92 494.59,-155.572 -29.59,-231.289 231.227,29.683 155.61,-494.629 134.89,50.356 87.83,706.414 132.8,120.487 636.8,-873.749 L 1954.06,0 2883.11,929.031 2403.35,667.336" /></g></g></svg>